<svg width="128" height="128" viewBox="0 0 128 128" fill="none" xmlns="http://www.w3.org/2000/svg">
  <rect width="128" height="128" rx="38" fill="#DCE7FF"/>
  <circle cx="96" cy="32" r="26" fill="#EAF1FF"/>
  <rect x="24" y="24" width="44" height="54" rx="10" fill="white"/>
  <path d="M37 40H56" stroke="#1F2337" stroke-width="4.5" stroke-linecap="round"/>
  <path d="M37 51H56" stroke="#1F2337" stroke-width="4.5" stroke-linecap="round"/>
  <path d="M37 62H49" stroke="#1F2337" stroke-width="4.5" stroke-linecap="round"/>
  <path d="M29 24.5H59C64.2467 24.5 68.5 28.7533 68.5 34V68C68.5 73.2467 64.2467 77.5 59 77.5H29C23.7533 77.5 19.5 73.2467 19.5 68V34C19.5 28.7533 23.7533 24.5 29 24.5Z" stroke="#1F2337" stroke-width="4"/>
  <path d="M63.3125 73.4375L79.3125 57.4375L88.5625 66.6875L72.6875 82.6875L61.9375 85.8125L63.3125 73.4375Z" fill="#F7A24C"/>
  <path d="M79.3125 57.4375L83.6875 53.0625C86.2908 50.4592 90.5092 50.4592 93.1125 53.0625L94.9375 54.8875C97.5408 57.4908 97.5408 61.7092 94.9375 64.3125L90.5625 68.6875L79.3125 57.4375Z" fill="#FF8A65"/>
  <path d="M61.9375 85.8125L72.6875 82.6875" stroke="#1F2337" stroke-width="4" stroke-linecap="round" stroke-linejoin="round"/>
  <path d="M63.3125 73.4375L79.3125 57.4375L90.5625 68.6875L74.5625 84.6875L61.9375 85.8125L63.3125 73.4375Z" stroke="#1F2337" stroke-width="4" stroke-linejoin="round"/>
  <path d="M83.0625 53.6875L94.3125 64.9375" stroke="#1F2337" stroke-width="4" stroke-linecap="round"/>
</svg>
